<?xml version="1.0" encoding="UTF-8" standalone="no"?>
<!-- Created with Inkscape (http://www.inkscape.org/) -->

<svg
   xmlns:dc="http://purl.org/dc/elements/1.1/"
   xmlns:cc="http://creativecommons.org/ns#"
   xmlns:rdf="http://www.w3.org/1999/02/22-rdf-syntax-ns#"
   xmlns:svg="http://www.w3.org/2000/svg"
   xmlns="http://www.w3.org/2000/svg"
   xmlns:sodipodi="http://sodipodi.sourceforge.net/DTD/sodipodi-0.dtd"
   xmlns:inkscape="http://www.inkscape.org/namespaces/inkscape"
   width="46.286968mm"
   height="14.163776mm"
   viewBox="0 0 164.00894 50.186609"
   id="svg2"
   version="1.1"
   inkscape:version="0.91 r13725"
   sodipodi:docname="just-just-for-the-record.svg">
  <defs
     id="defs4" />
  <sodipodi:namedview
     id="base"
     pagecolor="#ffffff"
     bordercolor="#666666"
     borderopacity="1.0"
     inkscape:pageopacity="0.0"
     inkscape:pageshadow="2"
     inkscape:zoom="1.4"
     inkscape:cx="-59.078726"
     inkscape:cy="19.819593"
     inkscape:document-units="px"
     inkscape:current-layer="layer1"
     showgrid="false"
     inkscape:window-width="1362"
     inkscape:window-height="723"
     inkscape:window-x="4"
     inkscape:window-y="1"
     inkscape:window-maximized="1"
     showguides="false"
     inkscape:guide-bbox="true"
     fit-margin-top="1"
     fit-margin-left="1"
     fit-margin-right="1"
     fit-margin-bottom="1">
    <sodipodi:guide
       position="-2469.1614,-330.05053"
       orientation="1,0"
       id="guide4530" />
    <sodipodi:guide
       position="-2367.136,-345.20282"
       orientation="1,0"
       id="guide4532" />
    <sodipodi:guide
       position="-2243.8974,-388.63932"
       orientation="1,0"
       id="guide4534" />
    <sodipodi:guide
       position="-2121.669,-447.22822"
       orientation="1,0"
       id="guide4536" />
    <sodipodi:guide
       position="-2017.6233,-402.78152"
       orientation="1,0"
       id="guide4538" />
    <sodipodi:guide
       position="-1926.7095,-360.35512"
       orientation="1,0"
       id="guide4540" />
  </sodipodi:namedview>
  <metadata
     id="metadata7">
    <rdf:RDF>
      <cc:Work
         rdf:about="">
        <dc:format>image/svg+xml</dc:format>
        <dc:type
           rdf:resource="http://purl.org/dc/dcmitype/StillImage" />
        <dc:title></dc:title>
      </cc:Work>
    </rdf:RDF>
  </metadata>
  <g
     inkscape:label="Layer 1"
     inkscape:groupmode="layer"
     id="layer1"
     transform="translate(-1915.5978,-1732.7853)">
    <g
       id="g3629"
       style="font-style:normal;font-variant:normal;font-weight:bold;font-stretch:normal;font-size:20px;line-height:125%;font-family:'League Spartan';-inkscape-font-specification:'League Spartan Bold';letter-spacing:1.45000005px;word-spacing:0px;fill:#ffffff;fill-opacity:1;stroke:#000000;stroke-width:1px;stroke-linecap:butt;stroke-linejoin:miter;stroke-opacity:1"
       transform="translate(1870.3406,1674.695)"
       inkscape:export-xdpi="200.46387"
       inkscape:export-ydpi="200.46387">
      <path
         id="path3631"
         style="letter-spacing:1.45000005px;fill:#ffffff;stroke:#000000;stroke-opacity:1"
         d="m 58.38,62.433594 -3.76,0 0,10.88 c 0,1.66 -0.82,2.32 -1.9,2.32 -0.96,0 -2.14,-1.12 -2.14,-1.12 l -1.2,3.14 c 0,0 1.5,1.58 3.86,1.58 3.3,0 5.14,-1.72 5.14,-4.96 l 0,-11.84 z"
         inkscape:connector-curvature="0" />
      <path
         id="path3633"
         style="letter-spacing:1.45000005px;fill:#ffffff;stroke:#000000;stroke-opacity:1"
         d="m 74.705,62.433594 -3.76,0 0,9.54 c 0,2.76 -0.84,3.56 -2.68,3.56 -1.84,0 -2.68,-0.8 -2.68,-3.56 l 0,-9.54 -3.76,0 0,10.64 c 0,4.08 2.24,6.16 6.44,6.16 4.2,0 6.44,-2.08 6.44,-6.16 l 0,-10.64 z"
         inkscape:connector-curvature="0" />
      <path
         inkscape:connector-curvature="0"
         id="path3635"
         style="letter-spacing:1.45000005px;fill:#ffffff;stroke:#000000;stroke-opacity:1"
         d="m 83.18625,62.133594 c -2.66,0 -5.38,1.96 -5.38,5.04 0,1.72 1.16,3.26 3.14,4.24 1.96,0.98 3.72,1.52 3.72,2.72 0,1.54 -1.56,1.62 -2.38,1.62 -1.84,0 -4.04,-1.86 -4.04,-1.86 l -1.88,3.16 c 0,0 2.34,2.18 6.2,2.18 3.22,0 6.22,-1.38 6.22,-5.32 0,-2.16 -2.02,-3.72 -3.86,-4.5 -1.88,-0.8 -3.44,-1.46 -3.44,-2.38 0,-0.9 0.68,-1.48 1.96,-1.48 1.7,0 3.34,1.14 3.34,1.14 l 1.52,-3 c 0,0 -2.12,-1.56 -5.12,-1.56 z" />
      <path
         inkscape:connector-curvature="0"
         id="path3637"
         style="letter-spacing:1.45000005px;fill:#ffffff;stroke:#000000;stroke-opacity:1"
         d="m 90.477186,65.733594 3.92,0 0,13.2 3.76,0 0,-13.2 3.920004,0 0,-3.3 -11.600004,0 0,3.3 z" />
      <path
         id="path3639"
         style="letter-spacing:1.45000005px;fill:#ffffff;stroke:#000000;stroke-opacity:1"
         d="m 121.74,62.433594 -9.54,0 0,16.5 3.76,0 0,-6.62 5.34,0 0,-3.3 -5.34,0 0,-3.28 5.78,0 0,-3.3 z"
         inkscape:connector-curvature="0" />
      <path
         id="path3641"
         style="letter-spacing:1.45000005px;fill:#ffffff;stroke:#000000;stroke-opacity:1"
         d="m 124.23812,70.673594 c 0,4.82 3.44,8.56 8.32,8.56 4.74,0 8.3,-3.74 8.3,-8.56 0,-4.82 -3.72,-8.54 -8.3,-8.54 -4.54,0 -8.32,3.72 -8.32,8.54 z m 4.06,0 c 0,-2.46 1.36,-4.92 4.26,-4.92 2.92,0 4.24,2.46 4.24,4.92 0,2.46 -1.24,4.92 -4.24,4.92 -3.08,0 -4.26,-2.46 -4.26,-4.92 z"
         inkscape:connector-curvature="0" />
      <path
         id="path3643"
         style="letter-spacing:1.45000005px;fill:#ffffff;stroke:#000000;stroke-opacity:1"
         d="m 143.96719,62.433594 0,16.5 3.76,0 0,-6.52 5.04,6.52 4.78,0 -5.68,-6.82 c 2.02,-0.64 3.38,-2.3 3.38,-4.78 0,-3.24 -2.32,-4.9 -5.38,-4.9 l -5.9,0 z m 3.76,7.32 0,-4.32 0.44,0 c 1.42,0 3.12,0.1 3.12,2.16 0,2.06 -1.7,2.16 -3.12,2.16 l -0.44,0 z"
         inkscape:connector-curvature="0" />
      <path
         id="path3645"
         style="letter-spacing:1.45000005px;fill:#ffffff;stroke:#000000;stroke-opacity:1"
         d="m 164.65532,65.733594 3.92,0 0,13.2 3.76,0 0,-13.2 3.92,0 0,-3.3 -11.6,0 0,3.3 z"
         inkscape:connector-curvature="0" />
      <path
         id="path3647"
         style="letter-spacing:1.45000005px;fill:#ffffff;stroke:#000000;stroke-opacity:1"
         d="m 182.81937,72.313594 5.32,0 0,6.62 3.76,0 0,-16.5 -3.76,0 0,6.58 -5.32,0 0,-6.58 -3.76,0 0,16.5 3.76,0 0,-6.62 z"
         inkscape:connector-curvature="0" />
      <path
         id="path3649"
         style="letter-spacing:1.45000005px;fill:#ffffff;stroke:#000000;stroke-opacity:1"
         d="m 205.22281,62.433594 -9.44,0 0,16.5 9.44,0 0,-3.3 -5.68,0 0,-3.32 5.44,0 0,-3.3 -5.44,0 0,-3.28 5.68,0 0,-3.3 z"
         inkscape:connector-curvature="0" />
      <path
         id="path3651"
         style="letter-spacing:1.45000005px;fill:#ffffff;stroke:#000000;stroke-opacity:1"
         d="m 51.2,87.433594 0,16.499996 3.76,0 0,-6.519996 5.04,6.519996 4.78,0 -5.68,-6.819996 c 2.02,-0.64 3.38,-2.3 3.38,-4.78 0,-3.24 -2.32,-4.9 -5.38,-4.9 l -5.9,0 z m 3.76,7.32 0,-4.32 0.44,0 c 1.42,0 3.12,0.1 3.12,2.16 0,2.06 -1.7,2.16 -3.12,2.16 l -0.44,0 z"
         inkscape:connector-curvature="0" />
      <path
         id="path3653"
         style="letter-spacing:1.45000005px;fill:#ffffff;stroke:#000000;stroke-opacity:1"
         d="m 76.425937,87.433594 -9.44,0 0,16.499996 9.44,0 0,-3.3 -5.68,0 0,-3.319996 5.44,0 0,-3.3 -5.44,0 0,-3.28 5.68,0 0,-3.3 z"
         inkscape:connector-curvature="0" />
      <path
         id="path3655"
         style="letter-spacing:1.45000005px;fill:#ffffff;stroke:#000000;stroke-opacity:1"
         d="m 88.8175,100.53359 c -3.78,0 -5.44,-2.639996 -5.44,-4.859996 0,-2.2 1.66,-4.84 5.44,-4.84 1.92,0 3.24,1.02 3.24,1.02 l 1.6,-3.2 c 0,0 -1.84,-1.52 -5.42,-1.52 -4.68,0 -8.94,3.84 -8.94,8.58 0,4.719996 4.28,8.519996 8.94,8.519996 3.58,0 5.42,-1.52 5.42,-1.52 l -1.6,-3.199996 c 0,0 -1.32,1.019996 -3.24,1.019996 z"
         inkscape:connector-curvature="0" />
      <path
         id="path3657"
         style="letter-spacing:1.45000005px;fill:#ffffff;stroke:#000000;stroke-opacity:1"
         d="m 95.786561,95.673594 c 0,4.819996 3.44,8.559996 8.319999,8.559996 4.74,0 8.3,-3.74 8.3,-8.559996 0,-4.82 -3.72,-8.54 -8.3,-8.54 -4.539999,0 -8.319999,3.72 -8.319999,8.54 z m 4.06,0 c 0,-2.46 1.359999,-4.92 4.259999,-4.92 2.92,0 4.24,2.46 4.24,4.92 0,2.46 -1.24,4.919996 -4.24,4.919996 -3.08,0 -4.259999,-2.459996 -4.259999,-4.919996 z"
         inkscape:connector-curvature="0" />
      <path
         id="path3659"
         style="letter-spacing:1.45000005px;fill:#ffffff;stroke:#000000;stroke-opacity:1"
         d="m 115.51563,87.433594 0,16.499996 3.76,0 0,-6.519996 5.04,6.519996 4.78,0 -5.68,-6.819996 c 2.02,-0.64 3.38,-2.3 3.38,-4.78 0,-3.24 -2.32,-4.9 -5.38,-4.9 l -5.9,0 z m 3.76,7.32 0,-4.32 0.44,0 c 1.42,0 3.12,0.1 3.12,2.16 0,2.06 -1.7,2.16 -3.12,2.16 l -0.44,0 z"
         inkscape:connector-curvature="0" />
      <path
         id="path3661"
         style="letter-spacing:1.45000005px;fill:#ffffff;stroke:#000000;stroke-opacity:1"
         d="m 131.30156,87.433594 0,16.499996 4.78,0 c 4.54,0 8.32,-3.44 8.32,-8.259996 0,-4.8 -3.8,-8.24 -8.32,-8.24 l -4.78,0 z m 3.76,13.139996 0,-9.779996 0.58,0 c 2.8,0 4.7,2.14 4.7,4.9 -0.02,2.76 -1.92,4.879996 -4.7,4.879996 l -0.58,0 z"
         inkscape:connector-curvature="0" />
    </g>
  </g>
</svg>
